<?xml version="1.0"?>
<svg xmlns="http://www.w3.org/2000/svg" width="1385" height="959">
  <g>
    <path d="M-114,-29L-126,130L-22,177Z" fill="#fff7e5" stroke="#fff7e5"/>
    <path d="M-114,-29L-22,177L99,69Z" fill="#fff2de" stroke="#fff2de"/>
    <path d="M-114,-29L99,69L22,-118Z" fill="#fff6ee" stroke="#fff6ee"/>
    <path d="M22,-118L99,69L183,-17Z" fill="#ffeede" stroke="#ffeede"/>
    <path d="M22,-118L183,-17L362,-91Z" fill="#fee6d0" stroke="#fee6d0"/>
    <path d="M22,-118L362,-91L1081,-110Z" fill="#fecca6" stroke="#fecca6"/>
    <path d="M183,-17L99,69L165,51Z" fill="#fee7ce" stroke="#fee7ce"/>
    <path d="M183,-17L165,51L367,95Z" fill="#fedfbd" stroke="#fedfbd"/>
    <path d="M183,-17L367,95L362,-91Z" fill="#fedcbf" stroke="#fedcbf"/>
    <path d="M362,-91L367,95L497,-40Z" fill="#fed3b1" stroke="#fed3b1"/>
    <path d="M362,-91L497,-40L638,-82Z" fill="#fecba5" stroke="#fecba5"/>
    <path d="M362,-91L638,-82L1081,-110Z" fill="#f8b892" stroke="#f8b892"/>
    <path d="M497,-40L367,95L546,104Z" fill="#feca9b" stroke="#feca9b"/>
    <path d="M497,-40L546,104L638,-82Z" fill="#fec69d" stroke="#fec69d"/>
    <path d="M638,-82L546,104L707,94Z" fill="#fbbc8d" stroke="#fbbc8d"/>
    <path d="M638,-82L707,94L829,-72Z" fill="#f7b58f" stroke="#f7b58f"/>
    <path d="M638,-82L829,-72L1081,-110Z" fill="#f1a986" stroke="#f1a986"/>
    <path d="M829,-72L707,94L882,66Z" fill="#f4ab81" stroke="#f4ab81"/>
    <path d="M829,-72L882,66L918,30Z" fill="#eea783" stroke="#eea783"/>
    <path d="M829,-72L918,30L1034,-49Z" fill="#e8a585" stroke="#e8a585"/>
    <path d="M829,-72L1034,-49L1081,-110Z" fill="#e1a284" stroke="#e1a284"/>
    <path d="M1034,-49L918,30L1160,81Z" fill="#db9d7e" stroke="#db9d7e"/>
    <path d="M1034,-49L1160,81L1081,-110Z" fill="#d59c82" stroke="#d59c82"/>
    <path d="M1081,-110L1160,81L1305,-69Z" fill="#ca9780" stroke="#ca9780"/>
    <path d="M1081,-110L1305,-69L1386,-94Z" fill="#c19280" stroke="#c19280"/>
    <path d="M1081,-110L1386,-94L1548,-101Z" fill="#b88e80" stroke="#b88e80"/>
    <path d="M1305,-69L1160,81L1285,36Z" fill="#c2927c" stroke="#c2927c"/>
    <path d="M1305,-69L1285,36L1386,-94Z" fill="#ba8f80" stroke="#ba8f80"/>
    <path d="M1386,-94L1285,36L1454,123Z" fill="#b48a7a" stroke="#b48a7a"/>
    <path d="M1386,-94L1454,123L1548,-101Z" fill="#aa8780" stroke="#aa8780"/>
    <path d="M1548,-101L1454,123L1634,31Z" fill="#a0817b" stroke="#a0817b"/>
    <path d="M-126,130L-106,1005L-94,847Z" fill="#f2aa91" stroke="#f2aa91"/>
    <path d="M-126,130L-94,847L-90,376Z" fill="#ffc89d" stroke="#ffc89d"/>
    <path d="M-126,130L-90,376L-22,177Z" fill="#ffe9c3" stroke="#ffe9c3"/>
    <path d="M99,69L-22,177L102,231Z" fill="#ffe6bd" stroke="#ffe6bd"/>
    <path d="M99,69L102,231L165,51Z" fill="#ffe3be" stroke="#ffe3be"/>
    <path d="M165,51L102,231L208,283Z" fill="#fedba6" stroke="#fedba6"/>
    <path d="M165,51L208,283L367,95Z" fill="#fed7a3" stroke="#fed7a3"/>
    <path d="M367,95L208,283L340,258Z" fill="#fecb8a" stroke="#fecb8a"/>
    <path d="M367,95L340,258L484,247Z" fill="#fec580" stroke="#fec580"/>
    <path d="M367,95L484,247L546,104Z" fill="#fec384" stroke="#fec384"/>
    <path d="M546,104L484,247L727,231Z" fill="#fdb56a" stroke="#fdb56a"/>
    <path d="M546,104L727,231L707,94Z" fill="#fab171" stroke="#fab171"/>
    <path d="M707,94L727,231L773,257Z" fill="#f7a55d" stroke="#f7a55d"/>
    <path d="M707,94L773,257L882,66Z" fill="#f5a567" stroke="#f5a567"/>
    <path d="M882,66L773,257L918,181Z" fill="#f09c5b" stroke="#f09c5b"/>
    <path d="M882,66L918,181L918,30Z" fill="#eaa06d" stroke="#eaa06d"/>
    <path d="M918,30L918,181L1075,216Z" fill="#e39860" stroke="#e39860"/>
    <path d="M918,30L1075,216L1160,81Z" fill="#d99667" stroke="#d99667"/>
    <path d="M1160,81L1075,216L1228,248Z" fill="#cd8b52" stroke="#cd8b52"/>
    <path d="M1160,81L1228,248L1285,36Z" fill="#c58b61" stroke="#c58b61"/>
    <path d="M1285,36L1228,248L1408,251Z" fill="#bc8353" stroke="#bc8353"/>
    <path d="M1285,36L1408,251L1454,123Z" fill="#b3815d" stroke="#b3815d"/>
    <path d="M1454,123L1408,251L1575,234Z" fill="#a8764d" stroke="#a8764d"/>
    <path d="M1454,123L1575,234L1634,31Z" fill="#9f785f" stroke="#9f785f"/>
    <path d="M1634,31L1575,234L1568,556Z" fill="#9b653d" stroke="#9b653d"/>
    <path d="M1634,31L1568,556L1620,938Z" fill="#993e18" stroke="#993e18"/>
    <path d="M-22,177L-90,376L113,317Z" fill="#ffd9a8" stroke="#ffd9a8"/>
    <path d="M-22,177L113,317L102,231Z" fill="#ffdba8" stroke="#ffdba8"/>
    <path d="M102,231L113,317L208,283Z" fill="#fecf94" stroke="#fecf94"/>
    <path d="M208,283L113,317L211,370Z" fill="#fec584" stroke="#fec584"/>
    <path d="M208,283L211,370L340,258Z" fill="#fec27c" stroke="#fec27c"/>
    <path d="M340,258L211,370L401,375Z" fill="#feb76c" stroke="#feb76c"/>
    <path d="M340,258L401,375L484,247Z" fill="#feb669" stroke="#feb669"/>
    <path d="M484,247L401,375L497,341Z" fill="#fead5c" stroke="#fead5c"/>
    <path d="M484,247L497,341L727,231Z" fill="#feaa59" stroke="#feaa59"/>
    <path d="M727,231L497,341L718,388Z" fill="#fa9b48" stroke="#fa9b48"/>
    <path d="M727,231L718,388L773,257Z" fill="#f79647" stroke="#f79647"/>
    <path d="M773,257L718,388L885,393Z" fill="#f48936" stroke="#f48936"/>
    <path d="M773,257L885,393L918,181Z" fill="#f08e42" stroke="#f08e42"/>
    <path d="M918,181L885,393L915,407Z" fill="#ea8336" stroke="#ea8336"/>
    <path d="M918,181L915,407L1075,216Z" fill="#e38942" stroke="#e38942"/>
    <path d="M1075,216L915,407L1157,339Z" fill="#da7c35" stroke="#da7c35"/>
    <path d="M1075,216L1157,339L1228,248Z" fill="#ce7f3f" stroke="#ce7f3f"/>
    <path d="M1228,248L1157,339L1315,393Z" fill="#c47131" stroke="#c47131"/>
    <path d="M1228,248L1315,393L1408,251Z" fill="#bb7137" stroke="#bb7137"/>
    <path d="M1408,251L1315,393L1407,382Z" fill="#b4672d" stroke="#b4672d"/>
    <path d="M1408,251L1407,382L1528,391Z" fill="#ac632d" stroke="#ac632d"/>
    <path d="M1408,251L1528,391L1575,234Z" fill="#a56739" stroke="#a56739"/>
    <path d="M1575,234L1528,391L1568,556Z" fill="#9f5423" stroke="#9f5423"/>
    <path d="M-90,376L-94,847L-32,552Z" fill="#fcae8c" stroke="#fcae8c"/>
    <path d="M-90,376L-32,552L113,317Z" fill="#ffc690" stroke="#ffc690"/>
    <path d="M113,317L-32,552L44,577Z" fill="#ffb683" stroke="#ffb683"/>
    <path d="M113,317L44,577L211,370Z" fill="#ffba7c" stroke="#ffba7c"/>
    <path d="M211,370L44,577L259,504Z" fill="#feab6e" stroke="#feab6e"/>
    <path d="M211,370L259,504L363,483Z" fill="#fea760" stroke="#fea760"/>
    <path d="M211,370L363,483L401,375Z" fill="#feab5d" stroke="#feab5d"/>
    <path d="M401,375L363,483L560,532Z" fill="#fe9749" stroke="#fe9749"/>
    <path d="M401,375L560,532L497,341Z" fill="#fe9b48" stroke="#fe9b48"/>
    <path d="M497,341L560,532L718,388Z" fill="#fd903b" stroke="#fd903b"/>
    <path d="M718,388L560,532L693,557Z" fill="#fa7d2f" stroke="#fa7d2f"/>
    <path d="M718,388L693,557L854,548Z" fill="#f67226" stroke="#f67226"/>
    <path d="M718,388L854,548L885,393Z" fill="#f37526" stroke="#f37526"/>
    <path d="M885,393L854,548L915,407Z" fill="#ed7023" stroke="#ed7023"/>
    <path d="M915,407L854,548L951,493Z" fill="#ea691f" stroke="#ea691f"/>
    <path d="M915,407L951,493L1157,339Z" fill="#de7024" stroke="#de7024"/>
    <path d="M1157,339L951,493L1111,558Z" fill="#d7631e" stroke="#d7631e"/>
    <path d="M1157,339L1111,558L1257,554Z" fill="#cb5a1b" stroke="#cb5a1b"/>
    <path d="M1157,339L1257,554L1315,393Z" fill="#c36020" stroke="#c36020"/>
    <path d="M1315,393L1257,554L1423,511Z" fill="#b9511a" stroke="#b9511a"/>
    <path d="M1315,393L1423,511L1407,382Z" fill="#b35820" stroke="#b35820"/>
    <path d="M1407,382L1423,511L1528,391Z" fill="#ab5420" stroke="#ab5420"/>
    <path d="M1528,391L1423,511L1568,556Z" fill="#a5471a" stroke="#a5471a"/>
    <path d="M-32,552L-94,847L-23,645Z" fill="#efa389" stroke="#efa389"/>
    <path d="M-32,552L-23,645L44,577Z" fill="#fca881" stroke="#fca881"/>
    <path d="M44,577L-23,645L18,696Z" fill="#f5a27f" stroke="#f5a27f"/>
    <path d="M44,577L18,696L224,704Z" fill="#f29971" stroke="#f29971"/>
    <path d="M44,577L224,704L259,504Z" fill="#fb9865" stroke="#fb9865"/>
    <path d="M259,504L224,704L398,708Z" fill="#f58a52" stroke="#f58a52"/>
    <path d="M259,504L398,708L363,483Z" fill="#fe8e4d" stroke="#fe8e4d"/>
    <path d="M363,483L398,708L519,617Z" fill="#fa8241" stroke="#fa8241"/>
    <path d="M363,483L519,617L560,532Z" fill="#fe853c" stroke="#fe853c"/>
    <path d="M560,532L519,617L641,683Z" fill="#f8742e" stroke="#f8742e"/>
    <path d="M560,532L641,683L693,557Z" fill="#f97029" stroke="#f97029"/>
    <path d="M693,557L641,683L882,671Z" fill="#ee6120" stroke="#ee6120"/>
    <path d="M693,557L882,671L854,548Z" fill="#f15e1a" stroke="#f15e1a"/>
    <path d="M854,548L882,671L951,493Z" fill="#eb5b18" stroke="#eb5b18"/>
    <path d="M951,493L882,671L1022,733Z" fill="#dc5116" stroke="#dc5116"/>
    <path d="M951,493L1022,733L1111,558Z" fill="#d95015" stroke="#d95015"/>
    <path d="M1111,558L1022,733L1073,722Z" fill="#c94714" stroke="#c94714"/>
    <path d="M1111,558L1073,722L1262,643Z" fill="#c54513" stroke="#c54513"/>
    <path d="M1111,558L1262,643L1257,554Z" fill="#c54712" stroke="#c54712"/>
    <path d="M1257,554L1262,643L1369,670Z" fill="#b63f12" stroke="#b63f12"/>
    <path d="M1257,554L1369,670L1423,511Z" fill="#b64012" stroke="#b64012"/>
    <path d="M1423,511L1369,670L1551,634Z" fill="#a73812" stroke="#a73812"/>
    <path d="M1423,511L1551,634L1568,556Z" fill="#a43913" stroke="#a43913"/>
    <path d="M1568,556L1551,634L1620,938Z" fill="#882612" stroke="#882612"/>
    <path d="M-23,645L-94,847L18,696Z" fill="#e89d86" stroke="#e89d86"/>
    <path d="M18,696L-94,847L37,775Z" fill="#e19783" stroke="#e19783"/>
    <path d="M18,696L37,775L224,704Z" fill="#e99372" stroke="#e99372"/>
    <path d="M224,704L37,775L249,846Z" fill="#e18765" stroke="#e18765"/>
    <path d="M224,704L249,846L328,766Z" fill="#e18056" stroke="#e18056"/>
    <path d="M224,704L328,766L398,708Z" fill="#e8804f" stroke="#e8804f"/>
    <path d="M398,708L328,766L488,784Z" fill="#e47543" stroke="#e47543"/>
    <path d="M398,708L488,784L519,617Z" fill="#eb743b" stroke="#eb743b"/>
    <path d="M519,617L488,784L641,683Z" fill="#ed6e30" stroke="#ed6e30"/>
    <path d="M641,683L488,784L693,805Z" fill="#e1622b" stroke="#e1622b"/>
    <path d="M641,683L693,805L882,671Z" fill="#e15920" stroke="#e15920"/>
    <path d="M882,671L693,805L836,837Z" fill="#d74d1b" stroke="#d74d1b"/>
    <path d="M882,671L836,837L918,778Z" fill="#d24917" stroke="#d24917"/>
    <path d="M882,671L918,778L1022,733Z" fill="#d04916" stroke="#d04916"/>
    <path d="M1022,733L918,778L1007,968Z" fill="#bc3d16" stroke="#bc3d16"/>
    <path d="M1022,733L1007,968L1164,853Z" fill="#af3614" stroke="#af3614"/>
    <path d="M1022,733L1164,853L1073,722Z" fill="#b83c14" stroke="#b83c14"/>
    <path d="M1073,722L1164,853L1262,643Z" fill="#b43a12" stroke="#b43a12"/>
    <path d="M1262,643L1164,853L1230,869Z" fill="#a63312" stroke="#a63312"/>
    <path d="M1262,643L1230,869L1397,807Z" fill="#9f3012" stroke="#9f3012"/>
    <path d="M1262,643L1397,807L1369,670Z" fill="#a43412" stroke="#a43412"/>
    <path d="M1369,670L1397,807L1521,789Z" fill="#932a12" stroke="#932a12"/>
    <path d="M1369,670L1521,789L1551,634Z" fill="#962d12" stroke="#962d12"/>
    <path d="M1551,634L1521,789L1620,938Z" fill="#7f2012" stroke="#7f2012"/>
    <path d="M-94,847L-106,1005L110,1028Z" fill="#c68786" stroke="#c68786"/>
    <path d="M-94,847L110,1028L37,775Z" fill="#d18a7e" stroke="#d18a7e"/>
    <path d="M37,775L110,1028L249,846Z" fill="#d1816c" stroke="#d1816c"/>
    <path d="M249,846L110,1028L281,942Z" fill="#c8745e" stroke="#c8745e"/>
    <path d="M249,846L281,942L328,766Z" fill="#d57653" stroke="#d57653"/>
    <path d="M328,766L281,942L424,993Z" fill="#ce6c4b" stroke="#ce6c4b"/>
    <path d="M328,766L424,993L488,784Z" fill="#d66b42" stroke="#d66b42"/>
    <path d="M488,784L424,993L552,956Z" fill="#cc5f38" stroke="#cc5f38"/>
    <path d="M488,784L552,956L693,805Z" fill="#d55c2e" stroke="#d55c2e"/>
    <path d="M693,805L552,956L716,950Z" fill="#c95027" stroke="#c95027"/>
    <path d="M693,805L716,950L836,837Z" fill="#cb4a1f" stroke="#cb4a1f"/>
    <path d="M836,837L716,950L807,1010Z" fill="#c03f1c" stroke="#c03f1c"/>
    <path d="M836,837L807,1010L1007,968Z" fill="#b73717" stroke="#b73717"/>
    <path d="M836,837L1007,968L918,778Z" fill="#be3d17" stroke="#be3d17"/>
    <path d="M1164,853L1007,968L1123,992Z" fill="#9e2b13" stroke="#9e2b13"/>
    <path d="M1164,853L1123,992L1231,964Z" fill="#962712" stroke="#962712"/>
    <path d="M1164,853L1231,964L1230,869Z" fill="#982912" stroke="#982912"/>
    <path d="M1230,869L1231,964L1456,936Z" fill="#882112" stroke="#882112"/>
    <path d="M1230,869L1456,936L1397,807Z" fill="#8a2312" stroke="#8a2312"/>
    <path d="M1397,807L1456,936L1521,789Z" fill="#822012" stroke="#822012"/>
    <path d="M1521,789L1456,936L1620,938Z" fill="#731812" stroke="#731812"/>
    <path d="M-106,1005L-78,1109L110,1028Z" fill="#b97e85" stroke="#b97e85"/>
    <path d="M110,1028L-78,1109L64,1173Z" fill="#b0747c" stroke="#b0747c"/>
    <path d="M110,1028L64,1173L166,1118Z" fill="#b06d6f" stroke="#b06d6f"/>
    <path d="M110,1028L166,1118L281,942Z" fill="#bb6d63" stroke="#bb6d63"/>
    <path d="M281,942L166,1118L352,1077Z" fill="#b86556" stroke="#b86556"/>
    <path d="M281,942L352,1077L424,993Z" fill="#bf624a" stroke="#bf624a"/>
    <path d="M424,993L352,1077L539,1115Z" fill="#b6543f" stroke="#b6543f"/>
    <path d="M424,993L539,1115L552,956Z" fill="#bc5336" stroke="#bc5336"/>
    <path d="M552,956L539,1115L693,1128Z" fill="#b4462c" stroke="#b4462c"/>
    <path d="M552,956L693,1128L716,950Z" fill="#b94527" stroke="#b94527"/>
    <path d="M716,950L693,1128L807,1010Z" fill="#b33b20" stroke="#b33b20"/>
    <path d="M807,1010L693,1128L862,1131Z" fill="#a8301c" stroke="#a8301c"/>
    <path d="M807,1010L862,1131L1007,968Z" fill="#a72d17" stroke="#a72d17"/>
    <path d="M1007,968L862,1131L1030,1157Z" fill="#972516" stroke="#972516"/>
    <path d="M1007,968L1030,1157L1123,992Z" fill="#942414" stroke="#942414"/>
    <path d="M1123,992L1030,1157L1135,1124Z" fill="#881d13" stroke="#881d13"/>
    <path d="M1123,992L1135,1124L1231,964Z" fill="#891f12" stroke="#891f12"/>
    <path d="M1231,964L1135,1124L1284,1094Z" fill="#7e1912" stroke="#7e1912"/>
    <path d="M1231,964L1284,1094L1456,936Z" fill="#7b1912" stroke="#7b1912"/>
    <path d="M1456,936L1284,1094L1470,1140Z" fill="#690f12" stroke="#690f12"/>
    <path d="M1456,936L1470,1140L1563,1126Z" fill="#5d0912" stroke="#5d0912"/>
    <path d="M1456,936L1563,1126L1620,938Z" fill="#610c12" stroke="#610c12"/>
    <path d="M64,1173L1030,1157L693,1128Z" fill="#a7432c" stroke="#a7432c"/>
    <path d="M64,1173L693,1128L539,1115Z" fill="#ab5240" stroke="#ab5240"/>
    <path d="M64,1173L539,1115L166,1118Z" fill="#ab6158" stroke="#ab6158"/>
    <path d="M166,1118L539,1115L352,1077Z" fill="#b0594a" stroke="#b0594a"/>
    <path d="M693,1128L1030,1157L862,1131Z" fill="#9c2918" stroke="#9c2918"/>
    <path d="M1030,1157L1470,1140L1135,1124Z" fill="#731512" stroke="#731512"/>
    <path d="M1135,1124L1470,1140L1284,1094Z" fill="#6c1112" stroke="#6c1112"/>
  </g>
</svg>
